<?xml version="1.0" encoding="utf-8"?>
<!-- Generator: Adobe Illustrator 15.0.2, SVG Export Plug-In . SVG Version: 6.00 Build 0)  -->
<!DOCTYPE svg PUBLIC "-//W3C//DTD SVG 1.1//EN" "http://www.w3.org/Graphics/SVG/1.1/DTD/svg11.dtd">
<svg version="1.1" id="Layer_1" xmlns="http://www.w3.org/2000/svg" xmlns:xlink="http://www.w3.org/1999/xlink" x="0px" y="0px"
	 width="1420px" height="924px" viewBox="0 0 1420 924" enable-background="new 0 0 1420 924" xml:space="preserve">
<path fill="none" d="M974.48,619.917c-8.504,0-17.008,0-25.512,0c-11.339,0-22.678,0-34.016,0c-9.449,0-18.898,0-28.347,0
	c-39.139,0-70.866,31.729-70.866,70.866c0,67.565,0,135.131,0,202.696c1.89,0,3.779,0,5.669,0c0-67.565,0-135.131,0-202.696
	c0-36.007,29.19-65.196,65.197-65.196c9.448,0,18.897,0,28.347,0c11.338,0,22.677,0,34.016,0c3.686,0,7.371,0,11.058,0
	c-7.493,6.946-8.984,18.242-3.551,26.896s16.255,12.218,25.768,8.486s15.025-13.702,13.127-23.742
	C993.471,627.187,984.698,619.917,974.48,619.917z"/>
<path fill="none" d="M628.656,802.771c-44.88,0-89.761,0-134.641,0c-42.27,0-76.536,34.266-76.536,76.535c0,3.779,0,7.56,0,11.339
	c0,0.944,0,1.89,0,2.834c1.89,0,3.78,0,5.669,0c0-0.944,0-1.89,0-2.834c0-3.779,0-7.56,0-11.339
	c0-39.138,31.728-70.866,70.866-70.866c49.698,0,99.396,0,149.095,0c10.218,0,18.991-7.27,20.89-17.31
	c1.898-10.04-3.614-20.011-13.127-23.742s-20.334-0.167-25.768,8.487C619.672,784.529,621.163,795.824,628.656,802.771z"/>
<path fill="none" d="M383.457,839.622c0,17.953,0,35.905,0,53.857c1.889,0,3.779,0,5.669,0c0-17.952,0-35.904,0-53.857
	c0-37.795,0-75.591,0-113.387c0-39.138,31.728-70.865,70.866-70.865c24.567,0,49.134,0,73.701,0c10.218,0,18.991-7.27,20.889-17.31
	c1.899-10.04-3.614-20.011-13.126-23.742c-9.513-3.731-20.334-0.167-25.768,8.486c-5.434,8.653-3.942,19.948,3.551,26.896
	c-19.749,0-39.498,0-59.247,0c-42.27,0-76.535,34.267-76.535,76.535C383.457,764.031,383.457,801.827,383.457,839.622z"/>
<path fill="none" d="M742.039,890.646c0,0.944,0,1.89,0,2.834c-1.89,0-3.779,0-5.669,0c0-0.944,0-1.89,0-2.834
	c0-207.337,0-414.674,0-622.01c0-36.008-29.189-65.197-65.197-65.197c-20.693,0-41.387,0-62.081,0
	c7.493,6.947,8.984,18.242,3.551,26.896c-5.434,8.653-16.255,12.217-25.768,8.486c-9.513-3.731-15.025-13.702-13.127-23.742
	c1.898-10.041,10.671-17.31,20.89-17.31c25.512,0,51.023,0,76.535,0c39.139,0,70.866,31.728,70.866,70.866
	C742.039,475.972,742.039,683.309,742.039,890.646z"/>
<path fill="none" d="M798.732,893.479c0-110.085,0-220.17,0-330.256c0-36.007,29.189-65.196,65.197-65.196
	c9.448,0,18.896,0,28.346,0c5.576,0,11.151,0,16.728,0c-7.493,6.946-8.984,18.242-3.551,26.896
	c5.434,8.654,16.255,12.219,25.768,8.487s15.024-13.702,13.127-23.742c-1.899-10.04-10.672-17.31-20.89-17.31
	c-10.395,0-20.788,0-31.182,0c-9.449,0-18.897,0-28.346,0c-39.139,0-70.867,31.728-70.867,70.865c0,110.086,0,220.171,0,330.256
	C794.953,893.479,796.842,893.479,798.732,893.479z"/>
<path fill="none" d="M713.692,845.291c0,16.063,0,32.126,0,48.188c1.891,0,3.78,0,5.67,0c0-16.062,0-32.125,0-48.188
	c0-0.944,0-1.89,0-2.835c0-130.801,0-261.602,0-392.403c0-39.138-31.728-70.866-70.866-70.866c-37.795,0-75.591,0-113.386,0
	c-10.218,0-18.991,7.27-20.89,17.31c-1.899,10.041,3.614,20.011,13.126,23.742c9.513,3.731,20.334,0.167,25.768-8.486
	c5.434-8.654,3.942-19.949-3.551-26.896c32.978,0,65.955,0,98.932,0c36.007,0,65.196,29.19,65.196,65.197
	c0,130.802,0,261.603,0,392.403C713.692,843.401,713.692,844.347,713.692,845.291z"/>
<path fill="none" d="M869.599,316.61c-9.449,0-18.897,0-28.347,0c-39.139,0-70.866,31.728-70.866,70.866
	c0,168.668,0,337.336,0,506.003c1.89,0,3.779,0,5.669,0c0-168.667,0-337.335,0-506.003c0-36.008,29.189-65.197,65.197-65.197
	c9.449,0,18.897,0,28.347,0c0.851,0,1.702,0,2.554,0c-7.493,6.947-8.984,18.242-3.551,26.896s16.255,12.217,25.768,8.487
	c9.513-3.731,15.025-13.702,13.127-23.743c-1.898-10.04-10.672-17.309-20.89-17.309C880.938,316.61,875.268,316.61,869.599,316.61z"
	/>
<path id="panel1pin1" fill="none" d="M321.107,893.479c0-15.117,0-30.235,0-45.354c0-42.27-34.266-76.536-76.536-76.536
	c-39.463,0-78.927,0-118.39,0c4.339-4.022,6.806-9.673,6.806-15.59c0-14.173,0-28.347,0-42.521c0-11.741-9.519-21.26-21.26-21.26
	s-21.26,9.519-21.26,21.26c0,14.174,0,28.348,0,42.521c0,11.741,9.519,21.26,21.26,21.26c44.281,0,88.563,0,132.844,0
	c39.138,0,70.866,31.728,70.866,70.866c0,15.118,0,30.236,0,45.354C317.328,893.479,319.218,893.479,321.107,893.479z"/>
<path fill="none" d="M1157.31,893.675c-1.89,0-3.779,0-5.669,0c0-0.945,0-1.89,0-2.835c0-9.448,0-18.897,0-28.346
	c0-39.139,31.728-70.866,70.865-70.866c28.817,0,57.635,0,86.452,0c10.218,0,18.991,7.27,20.89,17.309
	c1.898,10.041-3.614,20.012-13.127,23.742c-9.513,3.731-20.334,0.168-25.768-8.486c-5.434-8.653-3.942-19.948,3.551-26.896
	c-23.999,0-47.998,0-71.998,0c-36.007,0-65.196,29.189-65.196,65.197c0,9.448,0,18.897,0,28.346
	C1157.31,891.785,1157.31,892.729,1157.31,893.675z"/>
<path fill="none" d="M1100.617,893.675c1.889,0,3.779,0,5.669,0c0-0.945,0-1.89,0-2.835c0-9.448,0-18.897,0-28.346
	c0-39.139-31.728-70.866-70.866-70.866c-28.817,0-57.635,0-86.451,0c-10.219,0-18.991,7.27-20.89,17.309
	c-1.898,10.041,3.613,20.012,13.126,23.742c9.513,3.731,20.334,0.168,25.768-8.486c5.434-8.653,3.943-19.948-3.551-26.896
	c24,0,47.999,0,71.998,0c36.008,0,65.197,29.189,65.197,65.197c0,9.448,0,18.897,0,28.346
	C1100.617,891.785,1100.617,892.729,1100.617,893.675z"/>
<path fill="none" d="M400.465,802.771c0,30.236,0,60.473,0,90.708c1.89,0,3.779,0,5.669,0c0-30.235,0-60.472,0-90.708
	c0-39.139,31.728-70.866,70.866-70.866c35.905,0,71.811,0,107.716,0c10.218,0,18.991-7.27,20.89-17.31
	c1.898-10.04-3.614-20.011-13.127-23.742s-20.334-0.167-25.768,8.486c-5.434,8.654-3.943,19.949,3.551,26.896
	c-31.087,0-62.175,0-93.263,0C434.73,726.235,400.465,760.502,400.465,802.771z"/>
<path fill="none" d="M338.191,893.479c1.889,0,3.779,0,5.669,0c0-58.582,0-117.165,0-175.748c0-42.269-34.266-76.535-76.535-76.535
	c-15.527,0-31.053,0-46.58,0c4.34-4.023,6.806-9.673,6.806-15.59c0-14.174,0-28.347,0-42.521c0-11.741-9.519-21.259-21.26-21.259
	c-11.741,0-21.259,9.518-21.259,21.259c0,14.174,0,28.347,0,42.521c0,11.741,9.518,21.26,21.259,21.26c20.345,0,40.689,0,61.034,0
	c39.138,0,70.866,31.728,70.866,70.865C338.191,776.314,338.191,834.897,338.191,893.479z"/>
<path fill="none" d="M462.546,561.827c-6.521,0-13.041,0-19.562,0c-42.27,0-76.536,34.266-76.536,76.535
	c0,85.039,0,170.078,0,255.117c1.89,0,3.78,0,5.669,0c0-85.039,0-170.078,0-255.117c0-39.139,31.728-70.866,70.866-70.866
	c11.338,0,22.677,0,34.016,0c10.218,0,18.991-7.27,20.89-17.31c1.898-10.041-3.614-20.012-13.127-23.742
	c-9.512-3.731-20.334-0.167-25.768,8.486S455.053,554.88,462.546,561.827z"/>
<rect x="1086.443" y="890.84" fill="none" width="85.039" height="5.67"/>
<path fill="none" d="M1059.52,156.472c0-78.277-63.455-141.732-141.732-141.732c-107.717,0-215.433,0-323.149,0
	c-78.276,0-141.732,63.456-141.732,141.732c0,245.669,0,491.338,0,737.007c14.173,0,28.347,0,42.52,0c0,9.449,0,18.898,0,28.348
	c173.858,0,347.716,0,521.575,0c0-9.449,0-18.898,0-28.348c14.173,0,28.347,0,42.52,0
	C1059.52,647.811,1059.52,402.142,1059.52,156.472z"/>
<rect x="671.173" y="890.646" fill="none" width="170.079" height="5.669"/>
<path fill="none" d="M705.189,612.851c0,93.543,0,187.086,0,280.629c-14.173,0-28.347,0-42.52,0c0,9.449,0,18.898,0,28.348
	c-205.039,0-410.078,0-615.118,0c0-9.449,0-18.898,0-28.348c-14.173,0-28.347,0-42.52,0c0-93.543,0-187.086,0-280.629
	c0-78.277,63.456-141.732,141.732-141.732c138.897,0,277.795,0,416.693,0C641.733,471.118,705.189,534.573,705.189,612.851z"/>
<path fill="none" d="M838.417,893.479c0-18.896,0-37.795,0-56.692c0-78.276,63.456-141.732,141.732-141.732
	c99.213,0,198.425,0,297.638,0c78.277,0,141.732,63.456,141.732,141.732c0,18.897,0,37.796,0,56.692c-14.173,0-28.347,0-42.52,0
	c0,9.449,0,18.898,0,28.348c-165.354,0-330.709,0-496.062,0c0-9.449,0-18.898,0-28.348
	C866.764,893.479,852.591,893.479,838.417,893.479z"/>
<rect x="270.071" y="890.646" fill="none" width="170.079" height="5.669"/>
<rect x="2.197" y="893.479" fill="none" width="1417.323" height="42.521"/>
</svg>
