<?xml version="1.0" encoding="utf-8"?>
<!-- Generator: Adobe Illustrator 15.0.2, SVG Export Plug-In . SVG Version: 6.00 Build 0)  -->
<!DOCTYPE svg PUBLIC "-//W3C//DTD SVG 1.1//EN" "http://www.w3.org/Graphics/SVG/1.1/DTD/svg11.dtd">
<svg version="1.1" id="Layer_1" xmlns="http://www.w3.org/2000/svg" xmlns:xlink="http://www.w3.org/1999/xlink" x="0px" y="0px"
	 width="1438px" height="942px" viewBox="-10 -10 1438 942" enable-background="new -10 -10 1438 942" xml:space="preserve">
<g id="p2">
	<path id="p2bg" fill="#CEA56A" stroke="#000000" stroke-linecap="round" stroke-linejoin="round" d="M1057.52,141.803
		c0-78.277-63.455-141.732-141.731-141.732c-107.717,0-215.433,0-323.149,0c-78.275,0-141.731,63.456-141.731,141.732
		c0,245.669,0,491.338,0,737.007c14.173,0,28.347,0,42.52,0c0,9.449,0,18.898,0,28.349c173.858,0,347.716,0,521.575,0
		c0-9.449,0-18.898,0-28.349c14.173,0,28.348,0,42.521,0C1057.52,633.142,1057.52,387.473,1057.52,141.803z"/>
	<path id="p2p1" stroke="#000000" stroke-miterlimit="10" d="M711.692,830.622c0,16.062,0,32.126,0,48.188c1.891,0,3.779,0,5.67,0
		c0-16.062,0-32.125,0-48.188c0-0.944,0-1.89,0-2.835c0-130.801,0-261.603,0-392.403c0-39.138-31.729-70.866-70.866-70.866
		c-37.795,0-75.591,0-113.386,0c-10.219,0-18.991,7.271-20.891,17.311c-1.898,10.041,3.614,20.011,13.126,23.742
		c9.514,3.73,20.334,0.167,25.769-8.486c5.434-8.654,3.941-19.949-3.552-26.896c32.979,0,65.955,0,98.933,0
		c36.007,0,65.196,29.19,65.196,65.197c0,130.803,0,261.604,0,392.403C711.692,828.732,711.692,829.678,711.692,830.622z"/>
	<path id="p2p2" stroke="#000000" stroke-miterlimit="10" d="M740.039,875.977c0,0.944,0,1.891,0,2.834c-1.891,0-3.779,0-5.669,0
		c0-0.943,0-1.89,0-2.834c0-207.337,0-414.673,0-622.01c0-36.008-29.189-65.197-65.197-65.197c-20.692,0-41.387,0-62.081,0
		c7.493,6.947,8.984,18.242,3.551,26.896c-5.434,8.653-16.255,12.217-25.768,8.486s-15.025-13.702-13.127-23.742
		c1.898-10.041,10.671-17.31,20.89-17.31c25.513,0,51.023,0,76.535,0c39.139,0,70.866,31.728,70.866,70.866
		C740.039,461.303,740.039,668.64,740.039,875.977z"/>
	<path id="p2p3" stroke="#000000" stroke-miterlimit="10" d="M867.599,301.941c-9.448,0-18.896,0-28.347,0
		c-39.139,0-70.866,31.728-70.866,70.866c0,168.668,0,337.336,0,506.003c1.891,0,3.779,0,5.669,0c0-168.667,0-337.335,0-506.003
		c0-36.008,29.189-65.196,65.197-65.196c9.449,0,18.896,0,28.347,0c0.852,0,1.702,0,2.555,0c-7.493,6.946-8.984,18.241-3.552,26.896
		c5.434,8.654,16.256,12.217,25.769,8.487c9.513-3.731,15.024-13.702,13.127-23.743c-1.898-10.04-10.672-17.309-20.89-17.309
		C878.938,301.941,873.268,301.941,867.599,301.941z"/>
	<path id="p2p4" stroke="#000000" stroke-miterlimit="10" d="M796.732,878.811c0-110.085,0-220.17,0-330.256
		c0-36.007,29.188-65.195,65.196-65.195c9.448,0,18.896,0,28.347,0c5.576,0,11.15,0,16.728,0
		c-7.493,6.945-8.983,18.241-3.551,26.896c5.434,8.654,16.255,12.219,25.768,8.487c9.514-3.732,15.024-13.702,13.127-23.742
		c-1.898-10.04-10.672-17.311-20.89-17.311c-10.395,0-20.788,0-31.182,0c-9.449,0-18.897,0-28.347,0
		c-39.139,0-70.866,31.729-70.866,70.865c0,110.086,0,220.171,0,330.256C792.953,878.811,794.842,878.811,796.732,878.811z"/>
	<path id="p2p5" stroke="#000000" stroke-miterlimit="10" d="M972.48,605.248c-8.505,0-17.009,0-25.513,0
		c-11.339,0-22.678,0-34.016,0c-9.449,0-18.898,0-28.347,0c-39.14,0-70.866,31.729-70.866,70.866c0,67.564,0,135.131,0,202.695
		c1.89,0,3.778,0,5.669,0c0-67.564,0-135.131,0-202.695c0-36.007,29.189-65.196,65.197-65.196c9.447,0,18.896,0,28.347,0
		c11.338,0,22.677,0,34.016,0c3.687,0,7.371,0,11.059,0c-7.493,6.946-8.984,18.242-3.552,26.896
		c5.434,8.653,16.256,12.218,25.769,8.485c9.513-3.731,15.024-13.702,13.127-23.742C991.471,612.518,982.698,605.248,972.48,605.248
		z"/>
	
		<rect id="p2root" x="669.173" y="875.977" stroke="#004022" stroke-linecap="round" stroke-linejoin="round" width="170.079" height="5.67"/>
</g>
<g id="p1">
	<path id="p1bg" fill="#AFAF58" stroke="#000000" stroke-miterlimit="10" d="M703.189,598.182c0,93.543,0,187.086,0,280.629
		c-14.174,0-28.348,0-42.521,0c0,9.449,0,18.898,0,28.349c-205.039,0-410.078,0-615.118,0c0-9.449,0-18.898,0-28.349
		c-14.173,0-28.347,0-42.52,0c0-93.543,0-187.086,0-280.629c0-78.276,63.456-141.731,141.732-141.731c138.897,0,277.794,0,416.693,0
		C639.733,456.449,703.189,519.904,703.189,598.182z"/>
	<path id="p1p1" stroke="#000000" stroke-linecap="round" stroke-linejoin="round" d="M319.107,878.811c0-15.116,0-30.234,0-45.354
		c0-42.271-34.266-76.536-76.536-76.536c-39.463,0-78.927,0-118.39,0c4.339-4.021,6.806-9.673,6.806-15.59
		c0-14.173,0-28.347,0-42.521c0-11.74-9.519-21.26-21.26-21.26c-11.741,0-21.26,9.52-21.26,21.26c0,14.175,0,28.349,0,42.521
		c0,11.741,9.519,21.26,21.26,21.26c44.281,0,88.563,0,132.844,0c39.138,0,70.866,31.729,70.866,70.866c0,15.118,0,30.236,0,45.354
		C315.328,878.811,317.218,878.811,319.107,878.811z"/>
	<path id="p1p2" stroke="#000000" stroke-linecap="round" stroke-linejoin="round" d="M336.191,878.811c1.889,0,3.779,0,5.669,0
		c0-58.582,0-117.164,0-175.748c0-42.269-34.266-76.534-76.535-76.534c-15.527,0-31.053,0-46.58,0
		c4.34-4.023,6.806-9.673,6.806-15.591c0-14.174,0-28.347,0-42.521c0-11.741-9.519-21.259-21.26-21.259s-21.259,9.518-21.259,21.259
		c0,14.174,0,28.347,0,42.521c0,11.741,9.518,21.261,21.259,21.261c20.345,0,40.689,0,61.034,0
		c39.138,0,70.866,31.728,70.866,70.864C336.191,761.646,336.191,820.229,336.191,878.811z"/>
	<path id="p1p3" stroke="#000000" stroke-linecap="round" stroke-linejoin="round" d="M460.546,547.158c-6.521,0-13.041,0-19.562,0
		c-42.271,0-76.536,34.266-76.536,76.535c0,85.039,0,170.078,0,255.116c1.89,0,3.78,0,5.669,0c0-85.038,0-170.077,0-255.116
		c0-39.14,31.728-70.866,70.866-70.866c11.338,0,22.677,0,34.016,0c10.218,0,18.991-7.271,20.89-17.311
		c1.898-10.041-3.613-20.012-13.127-23.741c-9.512-3.731-20.334-0.167-25.768,8.485C451.56,528.914,453.053,540.211,460.546,547.158
		z"/>
	<path id="p1p4" stroke="#000000" stroke-linecap="round" stroke-linejoin="round" d="M381.457,824.953c0,17.953,0,35.905,0,53.856
		c1.889,0,3.779,0,5.669,0c0-17.951,0-35.903,0-53.856c0-37.795,0-75.591,0-113.387c0-39.139,31.728-70.865,70.866-70.865
		c24.566,0,49.134,0,73.701,0c10.218,0,18.99-7.271,20.889-17.311s-3.614-20.011-13.126-23.741
		c-9.513-3.731-20.334-0.167-25.769,8.485c-5.434,8.653-3.941,19.948,3.552,26.896c-19.749,0-39.498,0-59.247,0
		c-42.271,0-76.535,34.267-76.535,76.535C381.457,749.362,381.457,787.158,381.457,824.953z"/>
	<path id="p1p5" stroke="#000000" stroke-linecap="round" stroke-linejoin="round" d="M398.465,788.104c0,30.235,0,60.473,0,90.707
		c1.891,0,3.779,0,5.669,0c0-30.234,0-60.472,0-90.707c0-39.14,31.729-70.866,70.866-70.866c35.905,0,71.811,0,107.716,0
		c10.218,0,18.991-7.271,20.891-17.311c1.897-10.04-3.614-20.011-13.128-23.741c-9.513-3.731-20.334-0.168-25.768,8.485
		c-5.434,8.654-3.943,19.949,3.551,26.896c-31.087,0-62.175,0-93.263,0C432.73,711.566,398.465,745.833,398.465,788.104z"/>
	<path id="p1p6" stroke="#000000" stroke-linecap="round" stroke-linejoin="round" d="M626.656,788.104c-44.88,0-89.762,0-134.642,0
		c-42.27,0-76.536,34.266-76.536,76.534c0,3.779,0,7.561,0,11.339c0,0.944,0,1.891,0,2.834c1.891,0,3.78,0,5.67,0
		c0-0.943,0-1.89,0-2.834c0-3.778,0-7.56,0-11.339c0-39.138,31.728-70.865,70.865-70.865c49.698,0,99.396,0,149.096,0
		c10.218,0,18.99-7.271,20.89-17.311c1.898-10.04-3.614-20.011-13.127-23.742c-9.513-3.73-20.334-0.167-25.769,8.487
		C617.672,769.86,619.163,781.155,626.656,788.104z"/>
	
		<rect id="p1root" x="268.071" y="875.977" stroke="#004022" stroke-linecap="round" stroke-linejoin="round" width="170.079" height="5.67"/>
</g>
<g id="p3">
	<path id="p3bg" fill="#89C9AC" stroke="#000000" stroke-miterlimit="10" d="M836.417,878.811c0-18.896,0-37.795,0-56.691
		c0-78.276,63.456-141.732,141.731-141.732c99.214,0,198.426,0,297.639,0c78.277,0,141.732,63.456,141.732,141.732
		c0,18.896,0,37.796,0,56.691c-14.174,0-28.348,0-42.521,0c0,9.449,0,18.898,0,28.349c-165.354,0-330.709,0-496.062,0
		c0-9.449,0-18.898,0-28.349C864.764,878.811,850.591,878.811,836.417,878.811z"/>
	<path id="p3p1" stroke="#000000" stroke-linecap="round" stroke-linejoin="round" d="M1098.617,879.006c1.889,0,3.779,0,5.669,0
		c0-0.945,0-1.89,0-2.835c0-9.448,0-18.896,0-28.346c0-39.14-31.729-70.866-70.866-70.866c-28.817,0-57.635,0-86.451,0
		c-10.219,0-18.991,7.27-20.89,17.309c-1.898,10.041,3.612,20.013,13.126,23.742c9.513,3.731,20.334,0.168,25.768-8.485
		c5.435-8.653,3.943-19.948-3.551-26.896c24,0,47.999,0,71.998,0c36.008,0,65.197,29.189,65.197,65.197c0,9.448,0,18.896,0,28.346
		C1098.617,877.116,1098.617,878.061,1098.617,879.006z"/>
	<path id="p3p2" stroke="#000000" stroke-linecap="round" stroke-linejoin="round" d="M1155.311,879.006c-1.891,0-3.779,0-5.67,0
		c0-0.945,0-1.89,0-2.835c0-9.448,0-18.896,0-28.346c0-39.14,31.729-70.866,70.865-70.866c28.817,0,57.635,0,86.452,0
		c10.218,0,18.991,7.27,20.89,17.309c1.898,10.041-3.613,20.013-13.127,23.742c-9.513,3.731-20.334,0.168-25.768-8.485
		s-3.941-19.948,3.551-26.896c-23.999,0-47.998,0-71.998,0c-36.007,0-65.195,29.189-65.195,65.197c0,9.448,0,18.896,0,28.346
		C1155.311,877.116,1155.311,878.061,1155.311,879.006z"/>
	
		<rect id="p3root" x="1084.443" y="876.171" stroke="#004022" stroke-linecap="round" stroke-linejoin="round" width="85.039" height="5.67"/>
</g>
<g id="bottom">
	
		<rect id="bottombg" x="0.197" y="878.811" fill="#A05000" stroke="#000000" stroke-linecap="round" stroke-linejoin="round" width="1417.323" height="42.521"/>
</g>
</svg>
